<svg xmlns="http://www.w3.org/2000/svg" viewBox="0 0 595.28 107.27"><defs><style>.cls-1{fill:#a28c75;}.cls-2{fill:#ba9332;}.cls-3{fill:#ddba3d;}.cls-4{fill:#228194;}.cls-5{fill:#387f8a;}</style></defs><title>black</title><g id="Layer_2" data-name="Layer 2"><g id="Layer_1-2" data-name="Layer 1"><path class="cls-1" d="M415.05,56.33c6.25.11,11.78,1.94,15.9,6.91A18.59,18.59,0,0,1,435,76.05c-.18,6.42-2.46,12-7.54,16-5.43,4.39-11.72,5.36-18.35,3.75-8.23-2-12.59-7.67-14.14-15.74a20.49,20.49,0,0,1,10.47-21.67A19.73,19.73,0,0,1,415.05,56.33ZM429.93,77a22.59,22.59,0,0,0-.57-5.89c-1.93-8.19-8.43-13.88-17.06-12.75-5.31.7-9.12,3.43-11.17,8.41a22.51,22.51,0,0,0-1,13.38c1.17,5.72,4,10.37,9.45,13a13.81,13.81,0,0,0,17.55-4.63C429.39,85,430,81.13,429.93,77Z"/><path class="cls-1" d="M519.09,57.12c3,.09,5.94-.25,8.9.23,4.73.75,8,3.82,8.39,8.27a12.73,12.73,0,0,1-3.06,9.17c-.72.9-1.5,1.76-2.29,2.6-.46.48-.61.89-.15,1.48,3.41,4.3,6.63,8.75,10.45,12.72A10.61,10.61,0,0,0,548.77,95c.26,0,.67-.13.68.3s-.36.41-.65.41c-2.63,0-5.29.29-7.9-.27-2.36-.5-3.92-2.18-5.37-4-3-3.65-5.73-7.45-8.46-11.28a1.81,1.81,0,0,0-1.66-.84c-1.61,0-3.23,0-4.83,0-.83,0-1.1.27-1.08,1,.07,3.84,0,7.68.21,11.52.08,2.18.69,2.66,2.86,2.94.41.05.82.12,1.23.16.24,0,.53,0,.52.37s-.3.36-.55.38a8.29,8.29,0,0,1-.86,0c-3.35-.06-6.69-.15-10,0a5,5,0,0,1-.86-.06.37.37,0,0,1-.35-.42c0-.21.17-.26.34-.29l.12,0c2.41.07,2.76-1.57,2.94-3.43.23-2.43.17-4.87.17-7.31,0-7.39,0-14.79,0-22.18,0-.33,0-.66,0-1-.08-2.2-.66-2.86-2.8-3.19-.24,0-.49,0-.74-.06s-.65,0-.64-.39.39-.34.66-.34l4.71,0ZM519.44,68c0,2.56,0,5.13,0,7.69a1.34,1.34,0,0,0,1.18,1.55,16.79,16.79,0,0,0,5.9.4,4.74,4.74,0,0,0,3.94-2.48,12.41,12.41,0,0,0,0-12.43c-2-3.67-5.53-4.37-9.93-3.78-.88.12-1.17.49-1.15,1.37C519.48,62.88,519.44,65.44,519.44,68Z"/><path class="cls-1" d="M353.39,76v3c0,3.76,0,7.52.07,11.28a16.36,16.36,0,0,0,.21,2.21c.27,1.65.78,2.12,2.4,2.32a2.48,2.48,0,0,1,.73.12c.36.15,1-.16,1,.37s-.68.45-1.08.46c-3.39,0-6.77,0-10.16,0-.37,0-1,.15-1-.41s.57-.34.87-.4c1.8-.39,2.06-.64,2.34-2.5a75.7,75.7,0,0,0,.37-9.52c.14-5.25.06-10.5,0-15.75,0-2.06-.09-4.13-.18-6.19s-.81-2.9-3-3.14c-.12,0-.25,0-.37,0-.32,0-.79.05-.79-.38s.47-.36.77-.36c1.24,0,2.48,0,3.72,0l6.69,0c.31,0,.78-.1.81.34s-.46.35-.77.41c-1.89.39-2.55.89-2.58,2.58-.08,4.7,0,9.41,0,14.42,1.07-1.07,2-2,2.89-2.89q5.07-5.26,10.12-10.54a10.15,10.15,0,0,0,1.28-1.5c.46-.71.68-1.46-.28-2-.22-.13-.46-.28-.37-.57s.4-.24.63-.25c2.93,0,5.87,0,8.8,0,.28,0,.63,0,.64.38s-.21.32-.43.34c-3.29.27-5.54,2.32-7.73,4.49q-5.62,5.6-11.28,11.15c-.52.5-.51.81,0,1.29,5.59,5.74,11,11.62,17,17A12,12,0,0,0,381.89,95c.25,0,.65-.09.64.37,0,.22-.25.33-.46.33-3.4,0-6.9.69-10.09-1.07A25,25,0,0,1,366.4,90q-6.31-6.46-12.28-13.27C354,76.54,353.83,76.41,353.39,76Z"/><path class="cls-1" d="M465.23,57.36c-.29.65-.93.51-1.41.59a2.25,2.25,0,0,0-2,2.28,80.23,80.23,0,0,0-.18,9c0,4.55-.22,9.09.21,13.63.35,3.74,1.43,7.13,4.54,9.54,5,3.88,15.32,2.61,17.09-6.87a43,43,0,0,0,.65-7.76c0-5.37.09-10.74-.1-16.11-.09-2.66-.54-3.73-3.59-3.87-.3,0-.65,0-.66-.41s.32-.33.57-.33l10.29,0c.13,0,.27.12.41.19-.27.68-.86.49-1.3.58a2.43,2.43,0,0,0-2.18,2.31c-.14,1.32-.14,2.64-.15,4,0,5.29,0,10.58-.07,15.87-.08,3.65-.61,7.28-2.73,10.4-2.64,3.91-6.53,5.73-11.12,6A16.37,16.37,0,0,1,463.06,94c-3.57-2.36-5.08-5.94-5.66-10-.5-3.58-.18-7.18-.25-10.77-.08-4.13.13-8.26-.18-12.39-.16-2.09-.79-2.7-2.88-3-.25,0-.5,0-.75,0s-.54,0-.55-.36.27-.35.52-.37h11.16C464.75,57.09,465.05,57.06,465.23,57.36Z"/><path class="cls-1" d="M270.66,59.23c-5.52.16-10.81-.36-16.07.36a5.54,5.54,0,0,0-5.14,4.77c-.07.36-.16.86-.61.79s-.39-.58-.34-.92c.33-2.28.7-4.56,1.06-6.85.08-.49.32-.73.84-.64,4.44.73,8.91.34,13.36.41,3.76.06,7.53,0,11.29,0,.49,0,1.1-.09,1.35.39s-.21.84-.45,1.21q-9.82,15.56-20,30.86c-.66,1-1.29,2-1.95,3-.36.56-.37.89.45.88,5.45-.11,10.91.26,16.35-.23,3-.27,4.6-1.7,5.35-4.64.05-.2.12-.39.17-.59s.13-.62.51-.58.36.39.38.67a16.17,16.17,0,0,1-.43,3.8c-.16,1-.47,1.93-.66,2.9a1.13,1.13,0,0,1-1.28,1q-13-.12-26-.25c-1.34,0-1.52-.38-.74-1.58,2.34-3.55,4.73-7.07,7.06-10.63C260.31,75.5,265.55,67.6,270.66,59.23Z"/><path class="cls-1" d="M318.19,95.5c1.37-.94,1-1.79.65-2.72q-2.13-5.49-4.14-11a1.31,1.31,0,0,0-1.44-1c-3.19,0-6.37,0-9.55,0-.55,0-1.08,0-1.3.67-1.18,3.73-2.75,7.35-3.56,11.2-.33,1.52.23,2.17,1.82,2.38.32,0,.87-.21.89.37s-.54.42-.86.4c-3.14-.15-6.28,0-9.42,0-.37,0-1,.16-1-.42s.58-.33.9-.35c2.62-.13,4-1.75,4.79-4l6-16.4q3.08-8.37,6.13-16.74a.36.36,0,0,1,0-.11c.3-.47.3-1.31.95-1.32s.77.77,1,1.28c2.31,6,4.59,11.95,6.9,17.91,1.87,4.81,3.77,9.6,5.65,14.4a15.42,15.42,0,0,0,1.64,2.91,5.17,5.17,0,0,0,4,2.09c.25,0,.68-.13.7.28s-.42.47-.73.47A92.29,92.29,0,0,1,318.19,95.5ZM308.4,64.15c-.26.25-.35.3-.37.36q-2.2,6.69-4.39,13.38c-.27.82.26.86.86.86,2.6,0,5.2,0,7.8,0,1.07,0,1.14-.37.82-1.26-.95-2.59-1.83-5.21-2.75-7.81C309.74,67.9,309.09,66.1,308.4,64.15Z"/><path class="cls-1" d="M584.43,95.49c1.38-.88,1-1.78.69-2.69q-2.13-5.61-4.23-11.23c-.19-.49-.37-.9-1-.89-3.39,0-6.78.07-10.16.09a.94.94,0,0,0-1,.7c-1.17,3.53-2.61,7-3.48,10.58-.51,2.15-.1,2.65,2,3,.27,0,.68-.07.62.37s-.39.39-.69.39h-10c-.32,0-.63-.06-.66-.42s.39-.33.63-.34c2.91,0,4.32-1.8,5.23-4.29q5.91-16.23,11.88-32.42c.26-.7.26-1.84,1.15-1.85s.94,1.14,1.21,1.82q5.86,15.1,11.69,30.24a16.72,16.72,0,0,0,2.47,4.69A5.48,5.48,0,0,0,594.69,95c.22,0,.54-.07.59.27s-.22.44-.47.44A83.49,83.49,0,0,1,584.43,95.49ZM574.36,78.84v-.08h4.46c.72,0,.93-.26.67-1-1.51-4.23-3-8.47-4.48-12.7-.1-.28-.1-.74-.53-.7s-.35.42-.43.68c-1.39,4.27-2.76,8.54-4.16,12.8-.28.84,0,1,.76,1C571.89,78.82,573.13,78.84,574.36,78.84Z"/><path class="cls-1" d="M349.72,14.3c.87-.55,8.73-.59,9.55-.16-.1.09-.17.2-.27.23-2.59.77-2.62.8-2.64,3.46q-.09,13.07-.18,26.15c0,.46.25,1.12-.32,1.33s-.89-.36-1.23-.7c-4.85-4.78-9.57-9.71-14.19-14.72-3-3.21-5.89-6.45-9-9.88,0,1.94,0,3.63,0,5.33.13,5,.29,10.07.44,15.11a8.21,8.21,0,0,0,.05,1c.3,2.31.73,2.72,3.12,3,.23,0,.51-.05.66.33-.26.44-.74.39-1.16.37-2.48-.11-5-.13-7.43,0-.32,0-.87.19-.88-.36s.51-.29.81-.34c1.49-.24,2-.72,2.11-2.26.09-1.15.07-2.31.08-3.47.06-8-.12-16,.14-23.93a.48.48,0,0,1,0-.12c.06-.47-.19-1.12.39-1.32s.77.39,1.07.71c1.87,2,3.72,4.09,5.6,6.12l16.66,18c.3.33.62.64,1.06,1.09.19-3.25-.08-6.28-.13-9.31-.06-3.89-.16-7.77-.25-11.65a12.22,12.22,0,0,0-.07-1.48c-.19-1.5-.67-2-2.18-2.21Z"/><path class="cls-1" d="M566.74,20.18c.35,3.59.22,7.05.38,10.52s.22,7,.37,10.51c.1,2.42.6,2.93,3,3.23.28,0,.69-.08.71.31s-.44.39-.73.39c-2.69-.08-5.37-.13-8,0-.27,0-.67.07-.7-.32s.38-.32.64-.37c2-.37,2.12-.5,2.35-2.52a51.65,51.65,0,0,0,.13-5.7q0-10.66,0-21.32c0-.21,0-.42,0-.62,0-.37,0-.79.42-.95s.61.21.82.43c1.11,1.16,2.2,2.35,3.29,3.54q8.83,9.54,17.66,19.1c.83.89,1.65,1.79,2.53,2.76,0-3.91.09-7.64,0-11.37-.09-2.77-.1-5.53-.17-8.3,0-.37,0-.75,0-1.12-.23-2.84-.16-3.76-3.33-3.91a3.48,3.48,0,0,1-.6-.17c.54-.49,8.45-.62,9.32-.19-.08.1-.14.26-.22.27-2.22.21-2.65.68-2.66,3.3-.05,8.47,0,16.94-.05,25.42,0,.76.29,1.84-.42,2.16s-1.22-.67-1.73-1.18c-7.57-7.38-14.65-15.23-21.77-23A2,2,0,0,0,566.74,20.18Z"/><path class="cls-1" d="M374.55,14.13c.45-.52,1-.38,1.51-.34,3.92.35,7.84-.16,11.76,0a27.27,27.27,0,0,1,8.77,1.34,13.52,13.52,0,0,1,9.17,11.17,16.52,16.52,0,0,1-4.22,14.45,15.29,15.29,0,0,1-10.75,4.69,75.14,75.14,0,0,1-10.39-.36c-1.49-.11-3,.16-4.45.08-.3,0-.76.14-.75-.37s.43-.31.68-.33c1.37-.11,1.78-1,1.88-2.19s.22-2.56.23-3.84q0-10,0-20.08c0-2.72-.14-3.76-3.13-4C374.78,14.36,374.69,14.24,374.55,14.13Zm7,11.17c-.09,6.06,0,10.6.16,15.14.08,2,.51,2.53,2.4,3.05a17.11,17.11,0,0,0,4.78.48c8,0,13-4.83,13.24-12.84.18-6.35-2.3-11.25-8.06-14.18-3.63-1.84-7.59-1.73-11.52-1.5-.65,0-.86.46-.91,1.1C381.36,20,381.65,23.4,381.57,25.3Z"/><path class="cls-1" d="M296,45.68c-10,0-15.79-7.4-15.9-16-.1-8.36,6.06-16.88,17-16.48,8.9.32,15.66,5.83,15.61,15.6C312.61,38.88,305.39,45.86,296,45.68ZM308.6,30a17,17,0,0,0-2.83-10.08A11.36,11.36,0,0,0,295,14.76c-4.65.35-8.09,2.63-9.85,7.09a17.88,17.88,0,0,0-.92,9.36c.67,4.5,2.46,8.36,6.41,11A11.27,11.27,0,0,0,306.39,39,16.45,16.45,0,0,0,308.6,30Z"/><path class="cls-1" d="M531.4,45.68c-9.76,0-15.82-7.06-15.83-16.18,0-8.71,6.38-16.48,16.8-16.31,9.27.15,15.82,6.49,15.8,15.59C548.14,38.71,541.22,45.68,531.4,45.68ZM519.62,28.43a15.42,15.42,0,0,0,.28,3.46c.81,4.5,2.8,8.29,6.9,10.62,5.65,3.2,13.55,1.43,16.11-5.55a20.22,20.22,0,0,0,.17-13.45,12.77,12.77,0,0,0-4.74-6.63c-5.12-3.7-12.74-2.56-16.32,2.51A14.78,14.78,0,0,0,519.62,28.43Z"/><path class="cls-1" d="M446.82,44.65a.57.57,0,0,1-.61.47c-2.35,0-4.71,0-7.06-.11-.52,0-1.24,0-.45-.88.28-.3.06-.78-.09-1.18-1.13-3-2.26-6-3.36-8.93a1.42,1.42,0,0,0-1.55-1.09c-2.39.06-4.79,0-7.19,0a1.22,1.22,0,0,0-1.39.92c-.82,2.55-1.74,5.08-2.54,7.64-.64,2-.41,2.37,1.58,2.93.21.06.43.11.39.36s-.33.33-.58.33l-7.93,0-.12,0c-.24,0-.53-.08-.49-.41s.29-.29.48-.28c2.65.06,3.62-1.78,4.37-3.85q4-10.92,8-21.85c.54-1.48,1.07-2.95,1.64-4.42.15-.4.2-1,.76-1s.62.59.78,1c1.72,4.46,3.41,8.94,5.13,13.41,1.51,3.93,2.91,7.9,4.6,11.75C443.11,43.86,443.32,44,446.82,44.65Zm-16.68-24.9-.32,0q-1.8,5.51-3.59,11c-.2.6.26.59.63.59,2.15,0,4.29,0,6.44,0,.69,0,.88-.18.61-.88-.55-1.46-1-2.95-1.55-4.43C431.63,23.93,430.88,21.84,430.14,19.75Z"/><path class="cls-1" d="M467.05,29.06V40.47c0,.25,0,.49,0,.74.14,2.58.45,2.91,3,3.23.26,0,.68-.12.71.28s-.4.43-.72.43c-2.93,0-5.86-.17-8.79,0-.3,0-.76.12-.79-.35s.4-.33.66-.34c1.27-.07,1.75-.85,1.95-2a31.56,31.56,0,0,0,.25-5.32c0-6.69,0-13.38,0-20.08,0-1.18-.37-1.46-1.46-1.39-1.89.12-3.79,0-5.69.14a3.83,3.83,0,0,0-3.74,2.33c-.1.22-.18.54-.48.47s-.29-.44-.23-.73c.27-1.24.54-2.49.83-3.74.14-.59.41-.93,1.14-.7a14.27,14.27,0,0,0,4.41.49c5.29,0,10.58,0,15.87,0a17.23,17.23,0,0,0,2.95-.28c.72-.13,1,0,1,.76-.05,1.36-.06,2.72-.09,4.08,0,.24,0,.56-.32.58s-.32-.32-.34-.54c-.17-1.74-1.36-2.36-2.86-2.58a57.39,57.39,0,0,0-6.56-.28c-.94,0-.81.57-.81,1.14V29.06Z"/><path class="cls-1" d="M248.62,14.05a2.08,2.08,0,0,1,1.68-.28c4.63.29,9.25.1,13.88.13.8,0,1.82-.68,2.32,0,.34.45-.08,1.48-.16,2.25l-.21,2.22c0,.22-.1.46-.31.49s-.33-.25-.41-.49c-.68-2.24-1.21-2.64-3.59-2.69-1.74,0-3.47,0-5.21-.07-.73,0-1,.23-1,1,0,3.35,0,6.7,0,10,0,.73.2,1.05,1,1,2.15,0,4.3,0,6.45-.07a2.6,2.6,0,0,0,1.81-.69c.18-.17.38-.4.62-.18a.77.77,0,0,1,.09.57,23.23,23.23,0,0,0-.41,4.56c0,.27,0,.66-.35.67s-.31-.41-.37-.68c-.48-1.89-1.15-2.46-3.11-2.51-1.57,0-3.14,0-4.71,0-.79,0-1,.3-1,1,.06,3.71,0,7.43.15,11.15.06,2.34.48,2.71,2.85,3,.31,0,.8-.1.79.36s-.5.35-.81.34c-2.89,0-5.78-.21-8.66,0-.31,0-.76,0-.74-.43s.45-.26.71-.28a1.87,1.87,0,0,0,1.85-1.94c.13-1.23.25-2.47.26-3.7,0-6.78,0-13.56,0-20.33,0-.25,0-.5,0-.75-.1-2.53-.35-2.81-2.86-3.27C249,14.4,248.73,14.41,248.62,14.05Z"/><path class="cls-1" d="M491.91,14.06a1.66,1.66,0,0,1,1.43-.29,34,34,0,0,0,6.54,0,5.06,5.06,0,0,1,.87,0c.2,0,.45.08.48.31s-.21.29-.41.36c-2.22.77-2.25.78-2.3,3.09-.14,7.84-.16,15.69,0,23.54v.25c.15,2.42.54,2.83,2.91,3.12.3,0,.81-.18.82.28s-.53.42-.87.41c-2.89-.06-5.78-.12-8.68,0-.29,0-.76.07-.76-.39s.43-.29.69-.31c1.33-.09,1.84-.91,1.94-2.12.16-1.77.25-3.54.24-5.32,0-6.2,0-12.4,0-18.6,0-.53,0-1.07-.07-1.61a2.19,2.19,0,0,0-2.2-2.34,2.51,2.51,0,0,1-.57-.18S492,14.21,491.91,14.06Z"/><path class="cls-1" d="M211.15,80.41c-1.47-.77-3-1.51-4.41-2.29a72.94,72.94,0,0,0-22.26-7.83A60,60,0,0,0,155,72.63C142,77,131.17,84.7,121.79,94.55c-.56.6-.46,1,0,1.48,1.81,2,3.39,4.21,5.06,6.33.52.66.46,1-.2,1.54-1.23.95-2.41,1.95-3.57,3-.59.53-1,.53-1.56-.06A109.67,109.67,0,0,0,98,89.25,92.38,92.38,0,0,0,65,77.86c-15.53-2.12-30.36.43-44.6,6.87A134.6,134.6,0,0,0,1.77,95.57a5.64,5.64,0,0,1-1.77,1c.67-3.38,1.31-6.67,2-10,1.18-6,2.37-11.9,3.52-17.86A2.16,2.16,0,0,1,6.76,67a86.28,86.28,0,0,1,23.13-7.56A90.78,90.78,0,0,1,48.5,57.85a88.07,88.07,0,0,1,30,5.77,94.5,94.5,0,0,1,22.85,12.7,118.59,118.59,0,0,1,14.89,13.35c1,1,1,1,1.81-.23a90.76,90.76,0,0,1,15.76-18.11A68,68,0,0,1,168,55a72,72,0,0,1,26.17.54,66.13,66.13,0,0,1,9.61,2.69,1.92,1.92,0,0,1,1.32,1.37q3,9.79,6,19.6C211.15,79.53,211.42,79.89,211.15,80.41Z"/><path class="cls-2" d="M215.6,24.31l-.84-.16h-.07l-.41,0c-.08-.33-.35-.35-.62-.46a13.73,13.73,0,0,0-3.89-.58c-2.6-.2-5.18-.59-7.81-.61a104.28,104.28,0,0,0-16.66,1c-.64.1-1.59-.21-1.92.78l-.59.07c-.35-.32-.73-.11-1.12-.07a20.06,20.06,0,0,0-2.85.6A64,64,0,0,0,168.6,28.2a92.22,92.22,0,0,0-9.29,4.61c-.44.25-1,.42-1,1.06l-.23.15a1.32,1.32,0,0,0-1.3.29c-2.05,1.43-4.16,2.78-6.22,4.21-.66.46-1.4.94-1.47,1.89l-.08.07c-1.58.31-2.47,1.59-3.56,2.58-.08.06,0,.3,0,.45l0,0c-1.74.37-2.49,1.91-3.58,3.06-.08.08,0,.3,0,.46l0,0a.17.17,0,0,0-.22.18,107.73,107.73,0,0,0-10.89,13.5A104.85,104.85,0,0,0,120,80.88a2.8,2.8,0,0,1-.67,1.23c-.82-1.22-1-2.69-1.6-4a3.48,3.48,0,0,1-.48-2.36c1-1.37,1.17-3.06,1.53-4.66,0,0-.11-.1-.17-.15l.08-.57a.66.66,0,0,0,.84-.6c.64-3.1,2.08-5.93,3.09-8.9.18-.54.64-.87.79-1.44a21.92,21.92,0,0,1,2.72-6.26A13.4,13.4,0,0,0,127.32,51a57.93,57.93,0,0,1,3.18-5.91c.29-.55.79-1,.78-1.67a.73.73,0,0,0,.61-.31c1.61-2.27,3.25-4.53,4.84-6.82.41-.59,1.2-1,1-1.92.67,0,1.27-.14,1.44-.94.07-.33.35-.51.59-.72a25.7,25.7,0,0,0,3.42-3.42c1.47-1.9,3.56-3,5.12-4.82a25.5,25.5,0,0,1,5.15-3.93c1.83-1.25,3.73-2.4,5.62-3.54a39,39,0,0,1,4.34-2.39c2.34-1,4.61-2.2,7-3.13s4.65-1.59,7-2.33a39.69,39.69,0,0,1,5.32-1.5,11.66,11.66,0,0,0,3.63-1.25l.56-.13a2.54,2.54,0,0,0,1.74.06c1.82-.31,3.66-.55,5.48-.79a56.11,56.11,0,0,1,9.62-.32,1.63,1.63,0,0,1,1.25.7,47.57,47.57,0,0,1,4.14,5.85c.19.31.47.69,1,.47a.25.25,0,0,1,.1.15c-.1.2-.1.35.18.37l0,.05c0,.15,0,.23.17.2l0,.06a1.21,1.21,0,0,0,.39,1.38c1.21,1.14,1.88,2.69,2.9,4,1.19,1.52,2.2,3.2,3.45,4.71.17.21.41.41.29.72s-.44.25-.71.28C216.52,24.21,216,24,215.6,24.31Z"/><path class="cls-3" d="M117.25,75.74a3.48,3.48,0,0,0,.48,2.36c.58,1.32.78,2.79,1.6,4a10,10,0,0,0,.67,2.41c.19.61,0,1-.57,1.2l-.22.08c-2.37,1-2.4,1-3.6-1.21a101,101,0,0,0-7-11.07,84.79,84.79,0,0,0-14.16-15,63.64,63.64,0,0,0-25.82-13A61.49,61.49,0,0,0,49,44a81,81,0,0,0-15.91,2.88c-.49.14-1,.18-1.6.29.19-1.43,1.11-2.4,1.74-3.49,2.46-4.3,5-8.57,7.43-12.88a3.36,3.36,0,0,1,2.9-1.89,72.23,72.23,0,0,1,31.19,4A66.63,66.63,0,0,1,97.42,46.9a78.62,78.62,0,0,1,15.09,19.75,81.22,81.22,0,0,1,3.87,8c.14.36.17.94.83.66C117.23,75.47,117.24,75.61,117.25,75.74Z"/><path class="cls-4" d="M97.39,32l.25.18c0,.36,0,.81.33,1,1.52.61,2.3,2.11,3.66,2.93a10.75,10.75,0,0,1,3.19,2.76,4,4,0,0,0,2.62,2h0a5,5,0,0,0,1.48,2.39c.52.66.27,2.07,1.7,1.92.08,0,.16.17.25.25,1.57,1.4,1.48,4,3.64,5,0,0,0,.07,0,.11.11,1.6,1.31,2.68,2.06,3.93.62,1,.54,2.33,1.7,3.22.76.58.88,2,1.72.16,0,0,.06,0,.1-.06,1-.35,1.55-1.08,1.3-1.94-.45-1.6.14-3,.55-4.51.26-.94.93-1.8,1.18-2.62s.73-1.86.94-2.86c.48-2.23,1.86-4.15,2.44-6.37.08-.33.25-.76.69-.72.9.08,1-.65.89-1.12-.34-1.47.92-2.21,1.37-3.3.25-.63,1.14-.64,1.34-1.62a7.46,7.46,0,0,1,2-3.28,19.49,19.49,0,0,0,1.64-1.74,17.6,17.6,0,0,1,2.59-3.2,1.93,1.93,0,0,0,.69-1.76h0c.64-.17,1.43-.24,1.74-.87A6,6,0,0,1,143,18.66c.39-.14.52-.42.71-.73.4-.66.83-1.44,1.61-1.56a2.75,2.75,0,0,0,1.73-1,14.26,14.26,0,0,1,5.8-4.21A3,3,0,0,0,154.52,10c.43-.85,1.24-.94,1.83-1.42.43-.34,1.12-.11,1.37-.41,1.2-1.41,3.13-1.38,4.54-2.55a11.66,11.66,0,0,1,4.48-2c2.54-.65,5-1.66,7.47-2.46,2-.65,4.17-.54,5.21,1.26a1.6,1.6,0,0,0,1.82.92.32.32,0,0,1,.19.05,5.81,5.81,0,0,0,1.49,2.07c.28.24.86.27.68.78s-.68.41-1.12.47a12.39,12.39,0,0,0-3,.55c-1.4.57-2.88.87-4.31,1.44-2.41,1-5,1.44-7.37,2.73a2.51,2.51,0,0,1-2.19.13c-.34-.14-.71-.51-1,0s.44.53.53,1a98.85,98.85,0,0,0-10.35,5.65c-1.94,1.15-3.47,2.84-5.4,4a1,1,0,0,0-.41.93.54.54,0,0,1-.21.05A2.14,2.14,0,0,0,147,24c-1.46,1.41-3.22,2.5-4.5,4.09-.78,1-2,1.53-2.6,2.46a23.93,23.93,0,0,1-3,3.64,76.38,76.38,0,0,0-8,11.12c-1.54,2.46-2.77,5.12-4.12,7.7a3.06,3.06,0,0,0-.44,1.83l0,0c-.63,0-.76.51-.91.94-.84,2.33-1.89,4.57-2.83,6.85-.76,1.87-1.19,3.83-2,5.68-.16.39-.09,1-.62,1s-1.21-.33-1.22-.91a7,7,0,0,0-.55-1.88c-.52-1.71-.73-3.54-1.78-5.07-.17-.25-.35-.67-.25-.88.38-.82-.12-1.31-.57-1.79a4.84,4.84,0,0,1-.72-1.08c-.55-1-.49-2.34-1.73-3-.33-.16-.15-.58-.22-.87A5.92,5.92,0,0,0,109.23,51a2,2,0,0,1-.53-.76,1.92,1.92,0,0,0-1.53-1.32h0c-.27-1.66-.89-3.05-2.7-3.53v0c.24-1-.43-1.27-1.2-1.44h0a1.18,1.18,0,0,0-.44-1.46,2.84,2.84,0,0,1-1.34-1.44,2,2,0,0,0-1.1-1c-1-.19-1.38-1-2-1.59-.18-.19-.24-.41-.52-.57a9.15,9.15,0,0,1-3.14-2.54,2.81,2.81,0,0,0-2.61-1.27l-.28-.19a1,1,0,0,0-.44-1,90.14,90.14,0,0,0-10-5.78c-1.39-.76-3-1.09-4.39-1.82a33.09,33.09,0,0,0-8.1-2.8c-.31-.07-.88-.08-.79-.53s.56-.19.89-.14a6.07,6.07,0,0,0,1.41.08,5.55,5.55,0,0,1,2.71.41c1.34.52,2.89.5,4.26,1,1,.35,2.12.58,3.16.84,1.31.33,2.27,1.27,3.51,1.63a6,6,0,0,1,2.31,1.08,1.22,1.22,0,0,0,.52.26,9.7,9.7,0,0,1,5.09,2.41,1.1,1.1,0,0,0,.51.27,11.24,11.24,0,0,1,3,1.57A3,3,0,0,0,97.39,32Z"/><path class="cls-4" d="M195.05,34.74c1.1-1.08,2.21-2.16,3.29-3.26.38-.39.66-.27,1,.07,1.56,1.64,3.11,3.28,4.69,4.9.48.49.42.83-.07,1.26-1,.92-2,1.88-3.05,2.83a.94.94,0,0,0-1.17.45c-.59,1-1.28,1-2.05.19a.67.67,0,0,0-.82-.26l0,0,0,0a6.9,6.9,0,0,0-2.24-3.26c-.23-.22-.36-.25-.45-.64C193.93,36,195.11,35.62,195.05,34.74Z"/><path class="cls-5" d="M97.39,32a3,3,0,0,1-1.79-.59,11.24,11.24,0,0,0-3-1.57,1.1,1.1,0,0,1-.51-.27A9.7,9.7,0,0,0,87,27.14a1.22,1.22,0,0,1-.52-.26,6,6,0,0,0-2.31-1.08c-1.24-.36-2.2-1.3-3.51-1.63-1-.26-2.12-.49-3.16-.84-1.37-.48-2.92-.46-4.26-1a5.55,5.55,0,0,0-2.71-.41,6.07,6.07,0,0,1-1.41-.08c-.33-.05-.79-.35-.89.14s.48.46.79.53a33.09,33.09,0,0,1,8.1,2.8c1.38.73,3,1.06,4.39,1.82a90.14,90.14,0,0,1,10,5.78,1,1,0,0,1,.44,1,89.43,89.43,0,0,0-12.66-7.12A79.19,79.19,0,0,0,60.75,21a1.94,1.94,0,0,1-1.25-.45c.45-.43,1-.25,1.46-.23A74.87,74.87,0,0,1,74.3,22,63.46,63.46,0,0,1,97.24,31.8,1.3,1.3,0,0,1,97.39,32Z"/><path class="cls-5" d="M137.73,22.65a1.93,1.93,0,0,1-.69,1.76,17.6,17.6,0,0,0-2.59,3.2,19.49,19.49,0,0,1-1.64,1.74,7.46,7.46,0,0,0-2,3.28c-.2,1-1.09,1-1.34,1.62-.45,1.09-1.71,1.83-1.37,3.3.11.47,0,1.2-.89,1.12-.44,0-.61.39-.69.72-.58,2.22-2,4.14-2.44,6.37-.21,1-.66,1.92-.94,2.86s-.92,1.68-1.18,2.62c-.41,1.46-1,2.91-.55,4.51.25.86-.29,1.59-1.3,1.94,0,0-.09,0-.1.06-.84,1.85-1,.42-1.72-.16-1.16-.89-1.08-2.19-1.7-3.22-.75-1.25-2-2.33-2.06-3.93,0,0,0-.1,0-.11-2.16-1-2.07-3.57-3.64-5-.09-.08-.17-.25-.25-.25-1.43.15-1.18-1.26-1.7-1.92a5,5,0,0,1-1.48-2.39,55,55,0,0,1,7.33,9.33,67.82,67.82,0,0,1,4.06,7.13c.14.27.22.6.61.74.77-2.7,1.45-5.41,2.31-8.06a72.83,72.83,0,0,1,14.81-26.11C136.92,23.42,137.34,23,137.73,22.65Z"/><path class="cls-5" d="M181.24,3.32a1.6,1.6,0,0,1-1.82-.92c-1-1.8-3.17-1.91-5.21-1.26-2.5.8-4.93,1.81-7.47,2.46a11.66,11.66,0,0,0-4.48,2c-1.41,1.17-3.34,1.14-4.54,2.55-.25.3-.94.07-1.37.41-.59.48-1.4.57-1.83,1.42a3,3,0,0,1-1.69,1.15,14.26,14.26,0,0,0-5.8,4.21,2.75,2.75,0,0,1-1.73,1c-.78.12-1.21.9-1.61,1.56-.19.31-.32.59-.71.73a6,6,0,0,0-3.52,3.13c-.31.63-1.1.7-1.74.87a53.81,53.81,0,0,1,8.41-7.84,77.79,77.79,0,0,1,20.3-11.56,81.06,81.06,0,0,1,10-3.15,2.17,2.17,0,0,1,2.42.66C179.59,1.65,180.7,2.21,181.24,3.32Z"/><path class="cls-1" d="M148.74,23.16a.54.54,0,0,0,.21-.05,3.89,3.89,0,0,0,.73-.38A77.49,77.49,0,0,1,159,16.42a85.44,85.44,0,0,1,20.93-8.64c1.62-.44,3.38-.44,4.85-1.41.52.22,1.06,0,1.58,0a11.66,11.66,0,0,1-3.63,1.25,39.69,39.69,0,0,0-5.32,1.5c-2.34.74-4.69,1.45-7,2.33s-4.67,2.11-7,3.13A39,39,0,0,0,159.08,17c-1.89,1.14-3.79,2.29-5.62,3.54a25.5,25.5,0,0,0-5.15,3.93c-1.56,1.79-3.65,2.92-5.12,4.82a25.7,25.7,0,0,1-3.42,3.42c-.24.21-.52.39-.59.72-.17.8-.77.91-1.44.94l0,0a.7.7,0,0,1,.06-.23,98,98,0,0,1,7-7.26A30.78,30.78,0,0,0,148.74,23.16Z"/><path class="cls-5" d="M107.17,48.94a1.92,1.92,0,0,1,1.53,1.32,2,2,0,0,0,.53.76A5.92,5.92,0,0,1,111,54c.07.29-.11.71.22.87,1.24.61,1.18,2,1.73,3a4.84,4.84,0,0,0,.72,1.08c.45.48,1,1,.57,1.79-.1.21.08.63.25.88,1.05,1.53,1.26,3.36,1.78,5.07a7,7,0,0,1,.55,1.88c0,.58.66.93,1.22.91s.46-.62.62-1c.78-1.85,1.21-3.81,2-5.68.94-2.28,2-4.52,2.83-6.85.15-.43.28-1,.91-.94-.4,2-1.54,3.71-2.24,5.6-1.2,3.27-2.49,6.5-3.44,9.85,0,.19,0,.38-.08.57-.63.89-.53,2.06-1.15,3-.11-3-1.17-5.82-2.08-8.64a59.27,59.27,0,0,0-7.94-15.79A4.25,4.25,0,0,1,107.17,48.94Z"/><path class="cls-5" d="M184.79,6.37c-1.47,1-3.23,1-4.85,1.41A85.44,85.44,0,0,0,159,16.42a77.49,77.49,0,0,0-9.33,6.31,3.89,3.89,0,0,1-.73.38,1,1,0,0,1,.41-.93c1.93-1.15,3.46-2.84,5.4-4a98.85,98.85,0,0,1,10.35-5.65c-.09-.45-.87-.42-.53-1s.69-.16,1,0a2.51,2.51,0,0,0,2.19-.13c2.33-1.29,5-1.76,7.37-2.73,1.43-.57,2.91-.87,4.31-1.44a12.39,12.39,0,0,1,3-.55c.44-.06,1,0,1.12-.47s-.4-.54-.68-.78a5.81,5.81,0,0,1-1.49-2.07A23.87,23.87,0,0,1,184.79,6.37Z"/><path class="cls-5" d="M195.05,34.74c.06.88-1.12,1.25-.9,2.27.09.39.22.42.45.64a6.9,6.9,0,0,1,2.24,3.26,23.89,23.89,0,0,1-3.17-3.19c-.6-.59-.94-.72-1.59,0-1.37,1.43-2.89,2.72-4.26,4.15-.68.71-1.15.77-1.72,0a11.3,11.3,0,0,0-.86-1l0,0,1.66,0A2.49,2.49,0,0,0,188.8,40c.72-.67.85-1.82,2-2.18.78-.24.65-1.61,0-2.17-.95-.82-2.18-1.46-2.23-3l.14-.13A26,26,0,0,1,192,35.93c.68.77,1.13.71,1.73,0A11.27,11.27,0,0,1,195.05,34.74Z"/><path class="cls-1" d="M183.38,24.25c.33-1,1.28-.68,1.92-.78a104.28,104.28,0,0,1,16.66-1c2.63,0,5.21.41,7.81.61a13.73,13.73,0,0,1,3.89.58c.27.11.54.13.62.46-3.19-.37-6.36-.85-9.57-1a94.49,94.49,0,0,0-11.78,0C189.72,23.29,186.55,23.75,183.38,24.25Z"/><path class="cls-1" d="M158.33,33.87c0-.64.54-.81,1-1.06a92.22,92.22,0,0,1,9.29-4.61,64,64,0,0,1,10.22-3.35,20.06,20.06,0,0,1,2.85-.6c.39,0,.77-.25,1.12.07-3.09.84-6.23,1.51-9.27,2.55A75.51,75.51,0,0,0,159,33.6,4.67,4.67,0,0,1,158.33,33.87Z"/><path class="cls-1" d="M210.13,12.24c-.5.22-.78-.16-1-.47A47.57,47.57,0,0,0,205,5.92a1.63,1.63,0,0,0-1.25-.7,56.11,56.11,0,0,0-9.62.32c-1.82.24-3.66.48-5.48.79a2.54,2.54,0,0,1-1.74-.06A57.25,57.25,0,0,1,196.32,5a41.41,41.41,0,0,1,8-.09,1.34,1.34,0,0,1,1.14.5C207,7.71,208.55,10,210.13,12.24Z"/><path class="cls-5" d="M92.17,34.13a2.81,2.81,0,0,1,2.61,1.27,9.15,9.15,0,0,0,3.14,2.54c.28.16.34.38.52.57.57.61.94,1.4,2,1.59a2,2,0,0,1,1.1,1,2.84,2.84,0,0,0,1.34,1.44,1.18,1.18,0,0,1,.44,1.46,94.45,94.45,0,0,0-7.74-7.23Z"/><path class="cls-1" d="M215.6,24.31c.43-.35.92-.1,1.38-.15.27,0,.59.07.71-.28s-.12-.51-.29-.72c-1.25-1.51-2.26-3.19-3.45-4.71-1-1.31-1.69-2.86-2.9-4a1.21,1.21,0,0,1-.39-1.38c1.78,2.16,3.3,4.52,4.92,6.8,1.12,1.57,2.22,3.15,3.42,4.86A9.65,9.65,0,0,1,215.6,24.31Z"/><path class="cls-5" d="M107.44,40.81a4,4,0,0,1-2.62-2,10.75,10.75,0,0,0-3.19-2.76c-1.36-.82-2.14-2.32-3.66-2.93-.36-.15-.34-.6-.33-1A49.24,49.24,0,0,1,107.44,40.81Z"/><path class="cls-1" d="M149.11,40.41c.07-.95.81-1.43,1.47-1.89,2.06-1.43,4.17-2.78,6.22-4.21a1.32,1.32,0,0,1,1.3-.29C155,36,152.05,38.2,149.11,40.41Z"/><path class="cls-5" d="M185.24,40.83c-1.14-1.15-2.25-2.33-3.42-3.45-.6-.57-.59-1,.05-1.5.47-.37.89-.79,1.33-1.18a.67.67,0,0,0,.14.15,2.33,2.33,0,0,1-.21.54c-.6.85-.95,1.42.11,2.45.79.76,1.91,1.6,2,2.95Z"/><path class="cls-5" d="M183.58,34.38c.89-.9,1.82-1.76,2.65-2.71s1.25-.75,1.84.07c.21.29.43.56.65.84l-.14.13c-1.2-.84-2.15-.5-3.18.44-.51.46-.82,1.41-1.8,1.24Z"/><path class="cls-5" d="M196.85,40.92a.67.67,0,0,1,.82.26c.77.85,1.46.79,2.05-.19a.94.94,0,0,1,1.17-.45c-.21.23-.42.47-.65.69C198.45,43,198.45,43,196.85,40.92Z"/><path class="cls-5" d="M104.47,45.42c1.81.48,2.43,1.87,2.7,3.53A28.91,28.91,0,0,1,104.47,45.42Z"/><path class="cls-1" d="M141.88,47.06c0-.16-.09-.38,0-.46,1.09-1.15,1.84-2.69,3.58-3.06A32.07,32.07,0,0,1,141.88,47.06Z"/><path class="cls-1" d="M117.46,73.89c.62-.9.52-2.07,1.15-3,.06,0,.17.12.17.15-.36,1.6-.48,3.29-1.53,4.66,0-.13,0-.27,0-.4C117.3,74.85,117.38,74.37,117.46,73.89Z"/><path class="cls-1" d="M145.49,43.51c0-.15-.1-.39,0-.45,1.09-1,2-2.27,3.56-2.58A32.91,32.91,0,0,1,145.49,43.51Z"/><path class="cls-5" d="M103.27,44c.77.17,1.44.43,1.2,1.44A3.43,3.43,0,0,1,103.27,44Z"/><path class="cls-5" d="M183.2,34.7l.38-.32h0l-.26.46A.67.67,0,0,1,183.2,34.7Z"/><path class="cls-1" d="M210.41,12.76c-.28,0-.28-.17-.18-.37Z"/><path class="cls-1" d="M141.62,47.28a.17.17,0,0,1,.22-.18Z"/><polygon class="cls-1" points="214.69 24.14 214.76 24.15 214.72 24.2 214.69 24.14"/><path class="cls-1" d="M210.62,13c-.16,0-.21,0-.17-.2A1.63,1.63,0,0,0,210.62,13Z"/><path class="cls-1" d="M118.69,70.36c1-3.35,2.24-6.58,3.44-9.85.7-1.89,1.84-3.6,2.24-5.6l0,0c1.27-2.3,2.49-4.63,3.82-6.89.94-1.58,1.6-3.35,3-4.63l.07.06c0,.69-.49,1.12-.78,1.67A57.93,57.93,0,0,0,127.32,51a13.4,13.4,0,0,1-1.19,2.16,21.92,21.92,0,0,0-2.72,6.26c-.15.57-.61.9-.79,1.44-1,3-2.45,5.8-3.09,8.9A.66.66,0,0,1,118.69,70.36Z"/><path class="cls-1" d="M137.74,34.37c.19.91-.6,1.33-1,1.92-1.59,2.29-3.23,4.55-4.84,6.82a.73.73,0,0,1-.61.31l-.07-.06a3.14,3.14,0,0,1,.52-1.2,76.52,76.52,0,0,1,6-7.81Z"/><path class="cls-5" d="M137.71,34.35a76.52,76.52,0,0,0-6,7.81,3.14,3.14,0,0,0-.52,1.2c-1.4,1.28-2.06,3-3,4.63-1.33,2.26-2.55,4.59-3.82,6.89a3.06,3.06,0,0,1,.44-1.83c1.35-2.58,2.58-5.24,4.12-7.7a76.38,76.38,0,0,1,8-11.12,23.93,23.93,0,0,0,3-3.64c.58-.93,1.82-1.49,2.6-2.46,1.28-1.59,3-2.68,4.5-4.09a2.14,2.14,0,0,1,1.74-.88,30.78,30.78,0,0,1-4,3.7,98,98,0,0,0-7,7.26A.7.7,0,0,0,137.71,34.35Z"/><path class="cls-4" d="M183.34,34.85l.26-.46c1,.17,1.29-.78,1.8-1.24,1-.94,2-1.28,3.18-.44,0,1.51,1.28,2.15,2.23,3,.64.56.77,1.93,0,2.17-1.15.36-1.28,1.51-2,2.18a2.49,2.49,0,0,1-1.87.79l-1.66,0c-.12-1.35-1.24-2.19-2-2.95-1.06-1-.71-1.6-.11-2.45A2.33,2.33,0,0,0,183.34,34.85Z"/></g></g></svg>